<?xml version="1.0" encoding="UTF-8" standalone="no"?>
<svg width="38px" height="52px" viewBox="0 0 38 52" version="1.1" xmlns="http://www.w3.org/2000/svg" xmlns:xlink="http://www.w3.org/1999/xlink">
    <!-- Generator: Sketch 39.1 (31720) - http://www.bohemiancoding.com/sketch -->
    <title>connect_icon</title>
    <desc>Created with Sketch.</desc>
    <defs></defs>
    <g id="Page-1" stroke="none" stroke-width="1" fill="none" fill-rule="evenodd">
        <g id="connect_icon" transform="translate(1.000000, 1.000000)" stroke="#000000" fill="#000000">
            <path d="M29.4444444,36 C27.6666667,36 26,36.6666667 24.7777778,37.7777778 L13.2777778,28.5 C13.8888889,27.4444444 14.2222222,26.2777778 14.2222222,25 C14.2222222,23.7222222 13.8888889,22.5555556 13.2777778,21.5 L24.7777778,12.2222222 C26,13.3333333 27.6666667,14 29.4444444,14 C33.3333333,14 36.4444444,10.8333333 36.4444444,7 C36.4444444,3.16666667 33.3333333,0 29.4444444,0 C25.5555556,0 22.4444444,3.16666667 22.4444444,7 C22.4444444,8.27777778 22.7777778,9.44444444 23.3888889,10.5 L11.8888889,19.7777778 C10.6666667,18.6666667 9,18 7.22222222,18 C3.33333333,18 0.222222222,21.1666667 0.222222222,25 C0.222222222,28.8333333 3.33333333,32 7.22222222,32 C9,32 10.6666667,31.3333333 11.8888889,30.2222222 L23.3333333,39.5 C22.7222222,40.5555556 22.3888889,41.7222222 22.3888889,43 C22.4444444,46.8333333 25.5555556,50 29.4444444,50 C33.3333333,50 36.4444444,46.8333333 36.4444444,43 C36.4444444,39.1666667 33.3333333,36 29.4444444,36 L29.4444444,36 Z M29.4444444,2.22222222 C32.1111111,2.22222222 34.2222222,4.38888889 34.2222222,7 C34.2222222,9.61111111 32.0555556,11.7777778 29.4444444,11.7777778 C26.8333333,11.7777778 24.6666667,9.61111111 24.6666667,7 C24.6666667,4.38888889 26.7777778,2.22222222 29.4444444,2.22222222 L29.4444444,2.22222222 Z M7.22222222,29.7777778 C4.55555556,29.7777778 2.44444444,27.6111111 2.44444444,25 C2.44444444,22.3888889 4.61111111,20.2222222 7.22222222,20.2222222 C9.88888889,20.2222222 12,22.3888889 12,25 C12,27.6111111 9.88888889,29.7777778 7.22222222,29.7777778 L7.22222222,29.7777778 Z M29.4444444,47.7777778 C26.7777778,47.7777778 24.6666667,45.6111111 24.6666667,43 C24.6666667,40.3333333 26.8333333,38.2222222 29.4444444,38.2222222 C32.0555556,38.2222222 34.2222222,40.3888889 34.2222222,43 C34.2222222,45.6111111 32.1111111,47.7777778 29.4444444,47.7777778 L29.4444444,47.7777778 Z" id="Shape"></path>
        </g>
    </g>
</svg>