<?xml version="1.0" encoding="UTF-8" standalone="no"?>
<svg width="55px" height="53px" viewBox="0 0 55 53" version="1.1" xmlns="http://www.w3.org/2000/svg" xmlns:xlink="http://www.w3.org/1999/xlink">
    <!-- Generator: Sketch 39.1 (31720) - http://www.bohemiancoding.com/sketch -->
    <title>connected</title>
    <desc>Created with Sketch.</desc>
    <defs></defs>
    <g id="Page-1" stroke="none" stroke-width="1" fill="none" fill-rule="evenodd">
        <g id="Run-The-Town-V3.2" transform="translate(-138.000000, -973.000000)" fill="#000000">
            <g id="top-section" transform="translate(42.000000, 928.000000)">
                <g id="connected" transform="translate(96.000000, 45.000000)">
                    <path d="M27.5341739,0.0758234013 C25.7147206,0.073641952 24.2010381,1.524032 24.2010381,3.31630254 L24.2010381,5.86285451 C24.2010381,6.45533102 24.5237558,6.86709763 24.7999606,7.29589506 C24.6120256,7.38925768 24.5246633,7.43655423 24.1684884,7.60896916 C23.4481723,7.95701752 22.4365952,8.44531228 21.232463,9.09687845 C21.2203716,9.10304306 21.2084342,9.10950015 21.1966614,9.11624393 C20.3599138,9.62355461 20.0085772,10.5423383 20.0085772,11.3658594 L20.0085772,12.1082005 C20.0085772,12.7754395 20.5002652,13.2313943 21.1510888,13.2313943 C21.1521773,13.2313964 21.1532658,13.2313964 21.1543544,13.2313943 L33.8358969,13.2120288 C34.4935422,13.2120288 34.9751514,12.7566223 34.9751514,12.0856073 L34.9751514,11.1399296 C34.9751514,10.612184 34.7357484,10.0791101 34.3632094,9.68429605 C33.9905844,9.28948219 33.5074764,8.98124375 32.8854298,8.65470158 C32.885432,8.6536279 32.885432,8.65255422 32.8854298,8.65148054 C31.891463,8.13118631 30.787173,7.60500523 30.2163056,7.33139832 C30.5111606,6.88940636 30.867308,6.47685664 30.867308,5.86285451 L30.867308,3.31630254 C30.867308,1.524032 29.3535447,0.0758234013 27.5341739,0.0758234013 L27.5341739,0.0758234013 Z M27.5309083,1.7283387 C27.5319968,1.72834081 27.5330854,1.72834081 27.5341739,1.7283387 C28.4746378,1.7283387 29.2007409,2.44141339 29.2007409,3.31630254 L29.2007409,5.86285451 C29.2007409,6.19680644 29.0192169,6.54163938 28.7190011,6.8504905 C28.5698646,7.00510611 28.4870195,7.21105063 28.4878945,7.42499783 L28.4878945,7.81230614 C28.4875183,8.13015162 28.6710286,8.4200394 28.9598684,8.55787438 C29.1853048,8.66550163 30.9699706,9.51814289 32.107472,10.1135627 C32.6470203,10.3967986 32.9854748,10.644012 33.1458205,10.8139451 C33.3061627,10.9838783 33.3085689,11.0231943 33.3085689,11.1399296 L33.3085689,11.5595136 L21.6751442,11.5788791 L21.6751442,11.3658596 C21.6751442,10.9599094 21.7958864,10.6903021 22.0657456,10.5266917 C23.2120694,9.90786869 24.18383,9.43854147 24.8976097,9.0936511 C25.5366977,8.78428683 25.8841258,8.61107174 26.0466302,8.5288265 C26.324726,8.38711488 26.4994253,8.10297413 26.4990773,7.79294084 L26.4990773,7.3281708 C26.4996045,7.12617609 26.4254973,6.93098571 26.2907597,6.77948398 C26.0198039,6.47708007 25.8676052,6.17353362 25.8676052,5.86285451 L25.8676052,3.31630254 C25.8676052,2.44141356 26.5938698,1.72721525 27.5309186,1.7283387 L27.5309083,1.7283387 Z M27.4495427,14.9065026 C27.3572235,14.9087546 27.2659238,14.926206 27.1793758,14.9581433 L26.866895,14.9613643 L26.8245794,14.9645854 L26.7855122,14.9678064 L26.6260122,14.9839457 L26.6780903,15.4519423 C26.643626,15.5471248 26.6270752,15.6477719 26.6292606,15.7488801 L26.6390575,19.8801689 C26.6361395,20.1780623 26.7951555,20.454453 27.055251,20.6035679 C27.3153465,20.7526828 27.6362531,20.7514358 27.8951619,20.6003041 C28.1540707,20.4491723 28.3108971,20.1715543 28.3056245,19.8736927 L28.2990933,16.6396703 L28.3088902,16.6396703 L28.455362,14.9936097 L28.0094255,14.9548788 L27.9671098,14.9484196 L27.9247942,14.9516407 L27.7392586,14.9548617 C27.6463472,14.9218413 27.5482589,14.905449 27.449565,14.9064489 L27.4495427,14.9065026 Z M24.9041186,15.2518524 L24.6372088,15.306721 L24.5981416,15.3164012 L24.5590744,15.3260813 L23.5662952,15.6359288 L23.527228,15.6488811 L23.4914264,15.6618335 L23.1659244,15.8006282 L23.8136714,17.3208142 L24.0643081,17.2142982 L24.0838331,17.207822 L25.0245325,16.9141137 L25.2458748,16.8689338 L24.9040963,15.2519221 L24.9041186,15.2518524 Z M30.1837559,15.2518524 L29.9493941,16.484784 L29.8354753,16.8624099 L29.8745425,16.8753623 L29.8843394,16.8753623 L30.8640956,17.1658444 L31.2937591,17.340132 L31.9252312,15.8134919 L31.4532539,15.6198372 L31.4141867,15.6036467 L31.3718711,15.5906944 L30.3107337,15.2776201 L30.2684181,15.2679399 L30.2293509,15.2582597 L30.1837869,15.2518006 L30.1837559,15.2518524 Z M21.5970236,16.5590181 L21.5449455,16.5848376 L21.5123923,16.6041979 L21.4798392,16.6267964 L20.6140069,17.2013032 L20.5782053,17.2239016 L20.5489178,17.2465001 L20.1094884,17.6047605 L21.1641134,18.8828768 L21.5905216,18.5375278 L21.6035841,18.5278135 L22.3554925,18.0307686 L22.3880456,18.0145782 L22.38478,18.0113401 L22.404305,17.9983877 L22.2773581,17.8079608 L21.597058,16.5588919 L21.5970236,16.5590181 Z M33.4973598,16.5719704 L33.0188719,17.4627789 L32.6575648,17.9953286 L32.7129086,18.0308283 L33.500622,18.5536944 L33.9270302,18.9022729 L34.9881658,17.6273828 L34.5422275,17.2626667 L34.5096744,17.2368472 L34.4771213,17.2142487 L33.5852464,16.6236026 L33.5526933,16.6010041 L33.5136261,16.5816438 L33.497298,16.5719295 L33.4973598,16.5719704 Z M18.7912003,18.857088 L18.2052973,19.5639252 L18.1792583,19.5962039 L18.1564677,19.6284825 L17.7430808,20.2417203 L19.1264614,21.1615778 L19.5072986,20.5967528 L20.0769267,19.909281 L18.7911952,18.8570931 L18.7912003,18.857088 Z M36.2999295,18.8861285 L35.0109409,19.9350903 L35.5740602,20.6225621 L35.5871227,20.6355145 L35.9581956,21.1906575 L37.3448316,20.2740262 L36.9249341,19.6511065 L36.9021434,19.6188279 L36.8761044,19.5865493 L36.2999656,18.886166 L36.2999295,18.8861285 Z M47.4743981,19.9157231 C47.2669678,19.9197077 47.0684952,20.0002693 46.9177895,20.1416548 C45.3944631,20.4313547 44.1445177,21.5797122 44.1445177,23.1594308 L44.1445177,25.7059814 C44.1445177,26.3219631 44.5009658,26.7355761 44.79552,27.1777541 C44.2259452,27.4507455 43.1187848,27.9768855 42.1264061,28.4978292 C41.5046517,28.8242183 41.0218772,29.1330928 40.64863,29.5274238 C40.2753811,29.9217566 40.0334309,30.4539007 40.0334309,30.9830589 L40.0334309,31.9319638 C40.0334309,32.6029759 40.5251189,33.0551579 41.1759408,33.0551579 L53.8574816,33.0745183 C53.8585701,33.0745204 53.8596586,33.0745204 53.8607472,33.0745183 C54.5183959,33.0745183 55.0000034,32.6223379 55.0000034,31.9513224 L55.0000034,31.2057542 C55.0000034,30.3862928 54.6519153,29.4680901 53.8119227,28.9593659 C53.8001842,28.951533 53.7882465,28.9439977 53.7761211,28.9367675 C52.5728448,28.2873824 51.5632562,27.7999699 50.846608,27.452085 C50.8455194,27.4520829 50.8444309,27.4520829 50.8433423,27.452085 C50.4896391,27.2817615 50.3972425,27.2324046 50.2086148,27.1390113 C50.4854316,26.710953 50.8107927,26.2977745 50.8107927,25.7027433 L50.8107927,23.1561927 C50.8087302,21.5807416 49.5583086,20.432217 48.0342655,20.1416429 C47.8827377,19.9995035 47.6829623,19.9188772 47.4743981,19.915689 L47.4743981,19.9157231 Z M7.44421528,19.9254374 C7.23453698,19.9277963 7.03346198,20.0084472 6.88109916,20.1513026 C5.36024741,20.4430885 4.11108087,21.5907404 4.11108087,23.1690786 L4.11108087,25.7156326 C4.11108087,26.3301384 4.4676952,26.7422227 4.76208408,27.1841758 C4.17941545,27.4628235 3.08325033,27.9844064 2.0929712,28.5042508 C1.46917717,28.8307729 0.985128959,29.1389588 0.611939075,29.5338455 C0.238749208,29.9287304 -3.86718784e-06,30.4649613 -3.86718784e-06,30.9927067 L-3.86718784e-06,31.9416116 C-3.86718784e-06,32.6116625 0.486488303,33.0635088 1.13925163,33.0648057 L13.8273027,33.0809962 C14.484949,33.0809962 14.9665582,32.6288175 14.9665582,31.957802 L14.9665582,31.2154617 C14.9665582,30.3960002 14.6217256,29.4745697 13.7817324,28.9658472 C13.7688856,28.9590393 13.7558611,28.9525666 13.7426721,28.9464357 C12.5394804,28.2969944 11.5278955,27.807017 10.8066482,27.4585186 C10.4520298,27.286859 10.3637676,27.2420609 10.1751751,27.148671 C10.4519453,26.7208973 10.7773531,26.3082455 10.7773531,25.7124048 L10.7773531,23.1658525 C10.7773531,21.5881449 9.52608989,20.4411865 8.00082456,20.1513026 C7.85011892,20.009918 7.65164671,19.929357 7.444217,19.9253726 L7.44421528,19.9254374 Z M47.4743981,21.568205 C48.4135214,21.568205 49.1431325,22.2906158 49.1442222,23.1593968 L49.1442222,25.7027212 C49.1442222,26.0126301 48.9904628,26.3182733 48.7178175,26.6225787 C48.5830783,26.7740794 48.5089693,26.9692694 48.5094947,27.1712643 L48.5094947,27.636034 C48.5091548,27.951259 48.6897109,28.2392161 48.9749614,28.3783761 C49.1192677,28.4484552 49.4698033,28.6279578 50.1109623,28.9367453 C50.8217772,29.2817978 51.795578,29.7519887 52.9428264,30.3697854 C53.2160991,30.5352858 53.3334261,30.7990213 53.3334261,31.2057252 L53.3334261,31.4219733 L41.7000014,31.402613 L41.7000014,30.9830299 C41.7000014,30.8677029 41.7014434,30.8274653 41.8627498,30.6570447 C42.0240545,30.486636 42.3645114,30.2400505 42.9043536,29.9566615 C44.0375702,29.3617837 45.8276191,28.5064613 46.0486984,28.4009745 C46.3375396,28.2631406 46.5210514,27.9732526 46.5206758,27.6554063 L46.5206758,27.2680968 C46.5215872,27.0557121 46.4399923,26.8511339 46.2928245,26.6968179 C45.9929903,26.3845212 45.8110812,26.0374987 45.8110812,25.7059525 L45.8110812,23.1594019 C45.8110812,22.2845129 46.5390011,21.5682102 47.4743947,21.5682102 L47.4743981,21.568205 Z M7.444217,21.5779193 C8.38334011,21.5779193 9.11078506,22.2954406 9.11078506,23.1658849 L9.11078506,25.7124372 C9.11078506,26.0223461 8.95836975,26.3299697 8.68763294,26.632293 C8.55171404,26.7833206 8.4764279,26.9785626 8.47605687,27.1809803 L8.47605687,27.64575 C8.47634348,27.9590886 8.65533625,28.2453116 8.93826914,28.3848625 C9.09204742,28.461111 9.43843811,28.6338698 10.0775247,28.9432334 C10.0775226,28.9443128 10.0775226,28.9453921 10.0775247,28.9464715 C10.7903883,29.2909172 11.7653867,29.7584819 12.9126434,30.3762837 L12.9126434,30.3795218 C13.1840524,30.5451415 13.2999902,30.8100529 13.2999903,31.2154634 L13.2999903,31.4284836 L1.66656416,31.4122931 L1.66656416,30.9927101 C1.66656416,30.8759685 1.66878479,30.8365831 1.829315,30.6667249 C1.98984282,30.4968616 2.32978304,30.2495977 2.87091979,29.9663416 C2.8720026,29.9663437 2.87308541,29.9663437 2.87416822,29.9663416 C4.00796538,29.3711588 5.81371077,28.5038674 6.01200347,28.4106547 C6.30338452,28.2746785 6.48967709,27.9844042 6.49049729,27.6650831 L6.49049729,27.2745474 C6.49053156,27.0617154 6.40774711,26.8570771 6.25939119,26.7032668 C5.95875483,26.3914456 5.77764894,26.0471754 5.77764894,25.7156326 L5.77764894,23.1690786 C5.77764894,22.2948731 6.50882169,21.5778903 7.444217,21.5778869 L7.444217,21.5779193 Z M16.8739974,21.8393541 L16.5452409,22.6268794 L16.5289644,22.6656172 L16.5192019,22.707576 L16.2880958,23.4757376 L17.8863077,23.9437351 L18.1076483,23.2110784 L18.4136202,22.4687363 L16.8739986,21.8393609 L16.8739974,21.8393541 Z M38.2041137,21.8651736 L36.6677489,22.507457 L36.9183839,23.0948753 L37.2015703,23.9889133 L38.7932737,23.4950945 L38.5035784,22.5784649 L38.4905159,22.5429652 L38.4774534,22.5042274 L38.204033,21.8651702 L38.2041137,21.8651736 Z M15.9430628,25.2573476 L15.8747081,26.0416451 L15.8714597,26.0836039 L15.8714597,26.1255628 L15.8714597,26.2127014 C15.7844501,26.4221641 15.7879794,26.6578613 15.8812222,26.8646701 C15.88122,26.8657495 15.88122,26.8668289 15.8812222,26.8679082 L15.8812222,26.9873255 L15.9463232,26.9873255 C16.1032798,27.2232293 16.3709366,27.3632337 16.6559166,27.3584957 L20.8223383,27.3487815 C21.1228255,27.3523614 21.4019845,27.1952515 21.5529407,26.9376006 C21.7038969,26.6799497 21.7032679,26.3616664 21.5512946,26.1046041 C21.3993213,25.8475418 21.1195434,25.6915179 20.8190727,25.6962655 L17.5770753,25.7027416 L17.6031144,25.4025776 L15.9430568,25.2573408 L15.9430628,25.2573476 Z M39.1220277,25.2735381 L37.4652266,25.4542831 L37.4847516,25.6414804 L34.1776514,25.6479566 C33.8771499,25.6443546 33.5979678,25.8014595 33.4469979,26.0591192 C33.296028,26.316779 33.2966571,26.6350796 33.4486441,26.8921507 C33.6006312,27.1492218 33.880432,27.3052406 34.180917,27.3004709 L38.3473372,27.2939947 C38.5653497,27.2965459 38.7756886,27.2142781 38.9332384,27.0648369 L39.1838752,27.0874353 L39.1904064,26.9841573 L39.193672,26.9454196 L39.193672,26.9034607 L39.1871408,26.4967858 C39.1883619,26.4709805 39.1883619,26.4451326 39.1871408,26.4193273 L39.1806095,25.8512745 L39.1806095,25.8125367 L39.1773439,25.7705779 L39.1220173,25.273533 L39.1220277,25.2735381 Z M17.7365753,28.4462379 L16.1058136,28.7851329 L16.2327588,29.3854609 L16.2392728,29.4241987 L16.252301,29.4629364 L16.5615276,30.4473444 L16.5745558,30.4860822 L16.5908323,30.5215818 L16.5940808,30.528058 L17.4175994,30.182709 L18.153233,29.9535512 L18.1304423,29.8857729 L17.8537666,29.0014185 L17.7365822,28.4462771 L17.7365753,28.4462379 Z M37.3187495,28.4978769 L37.2536433,28.8367736 L36.9672016,29.7985882 L36.5700895,30.7539488 L36.3845522,31.0992978 L37.8558211,31.8771412 L38.0641422,31.4930613 L38.0836672,31.4543235 L38.0999953,31.4155858 L38.5198911,30.3989009 L37.7451989,30.0825993 L38.5491872,30.321439 L38.8649233,29.2660231 L38.8747202,29.2272854 L38.884517,29.1853266 L38.9561202,28.8044745 L37.3188475,28.4978548 L37.3187495,28.4978769 Z M18.7977127,31.312318 L17.3296991,32.0966172 L17.5217453,32.4484236 L17.5412703,32.4839233 L17.5607953,32.5162019 L18.1401894,33.3747351 L18.16298,33.4102348 L18.1890191,33.4392754 L18.3289941,33.6103351 L19.6179792,32.5613767 L19.5040605,32.42582 L18.976748,31.6415192 L18.797723,31.3123078 L18.7977127,31.312318 Z M27.5081331,32.2870424 C27.0491981,32.2959211 26.6839115,32.6711162 26.6911253,33.1262118 L26.6976566,36.3860554 L26.1638352,36.3376375 L26.1507727,36.3343994 L26.1344445,36.3343994 L26.121382,36.4925545 L25.8414509,37.9578697 L25.9065572,37.9708221 L25.9488728,37.9772983 L25.9911884,37.9805364 L27.058833,38.0741342 L27.0979002,38.0773723 L27.1402158,38.0773723 L27.3583028,38.0741342 C27.6065975,38.1272579 27.8657707,38.0651965 28.0622497,37.9055677 C28.2587286,37.7459388 28.3710598,37.5061723 28.3673552,37.2543319 L28.3575583,33.1230436 C28.3602218,32.8994136 28.2713562,32.684263 28.1112577,32.5267311 C27.9511593,32.3691993 27.7335019,32.2827407 27.5079973,32.287102 L27.5081331,32.2870424 Z M35.5773172,32.4096978 L35.5545266,32.4355173 L35.5512609,32.4419934 L34.929553,33.1875617 L34.5649906,33.54905 L35.7400502,34.7206587 L36.130655,34.3333492 L36.1599425,34.3043086 L36.1859816,34.27203 L36.8630247,33.4619113 L36.8890638,33.4328708 L36.9118544,33.3973711 L36.9411419,33.3554123 L35.8376889,32.6227521 L35.5772863,32.4097336 L35.5773172,32.4096978 Z M20.6791114,33.7265467 L19.5007966,34.8916979 L19.6472684,35.0401728 L19.6765559,35.0692134 L19.7058434,35.0950329 L20.5228512,35.7631409 L20.5554044,35.7889604 L20.5912059,35.8115588 L20.9199616,36.0310331 L21.8508967,34.6593173 L21.5481802,34.4592069 L20.8027806,33.8491969 L20.6790822,33.7265586 L20.6791114,33.7265467 Z M33.4224963,34.5205277 L32.7031392,34.9982072 L32.0684117,35.3371021 L32.8593805,36.7927372 L33.520147,36.4409308 L33.5559486,36.4215705 L33.5885017,36.398972 L34.3501761,35.8954731 L33.4224963,34.5205277 L33.4224963,34.5205277 Z M23.2115125,35.453295 L22.4270544,36.9089284 L22.5116856,36.9541082 L22.5507528,36.9734686 L22.58982,36.989659 L23.6151489,37.4092438 L23.6542161,37.4221961 L23.6932833,37.4351485 L24.1359662,37.5674841 L24.6111972,35.9827481 L24.194555,35.8568716 L23.2571109,35.4760179 L23.2115469,35.4534194 L23.2115125,35.453295 Z M30.6817723,35.9148385 L30.0405359,36.1117194 L29.1454058,36.2989185 L29.4871827,37.9159297 L30.4278803,37.7190488 L30.4701959,37.7093345 L30.5059975,37.6996202 L31.17653,37.4898296 L30.6817672,35.9147755 L30.6817723,35.9148385 Z M27.4625639,39.7685544 C27.2551336,39.7725391 27.056661,39.8531006 26.9059553,39.9944861 C25.3821614,40.2839457 24.1294281,41.4323969 24.1294281,43.0122621 L24.1294281,45.5588127 C24.1294281,46.1733151 24.4888377,46.5849989 24.7836858,47.0273576 C24.2010433,47.305961 23.1041869,47.8293453 22.1145736,48.3474326 C21.4907791,48.6739547 21.0067309,48.9853702 20.6335405,49.3802551 C20.26035,49.7751418 20.0215984,50.3081431 20.0215984,50.8358902 L20.0215984,51.7815655 C20.0215984,52.44785 20.5013978,52.9066787 21.1575977,52.9079875 L33.8423937,52.924178 C33.8434823,52.9241801 33.8445708,52.9241801 33.8456594,52.924178 C34.496483,52.924178 34.9881692,52.472001 34.9881692,51.8009855 L34.9881692,51.0586435 C34.9881692,50.2362132 34.6385102,49.3211055 33.8033437,48.8122552 C33.7905299,48.8043733 33.7775027,48.7968377 33.7642766,48.7896567 C32.5610845,48.1402785 31.5494987,47.6502483 30.8282545,47.3017498 C30.4728067,47.129688 30.3846262,47.0852154 30.1967789,46.9919022 C30.4737641,46.563619 30.7989567,46.150841 30.7989567,45.5556343 L30.7989567,43.009082 C30.7968942,41.4320748 29.5452352,40.2844979 28.0224278,39.9945338 C27.8737181,39.8565324 27.6791887,39.7773093 27.4755869,39.77183 C27.4712416,39.7707158 27.4668873,39.7696364 27.4625244,39.7685919 L27.4625639,39.7685544 Z M27.4625639,41.4210704 C28.4008312,41.4210704 29.1312983,42.1387161 29.132388,43.0090343 L29.132388,45.5555866 C29.132388,45.8630806 28.9798145,46.168567 28.7059798,46.4754441 C28.5712406,46.6269448 28.4971316,46.8221348 28.497657,47.0241297 L28.497657,47.4856733 C28.4960848,47.7968655 28.6709635,48.0825447 28.9501042,48.2247841 C29.112612,48.3070315 29.4600384,48.4802454 30.0991247,48.789609 C30.8129662,49.1345302 31.7849159,49.6068123 32.9342441,50.2258786 C33.2012123,50.3916006 33.3215919,50.6580084 33.3215919,51.0585906 L33.3215919,51.2716092 L21.6881655,51.2554187 L21.6881655,50.8358357 C21.6881655,50.7190941 21.6903998,50.6797087 21.8509139,50.5098505 C22.0114452,50.3399872 22.3513812,50.0927233 22.8925177,49.8094672 C24.0271144,49.2154773 25.835315,48.3502191 26.0336089,48.2570065 C26.323718,48.1200983 26.5086174,47.830019 26.5088416,47.5114382 L26.5088416,47.1209026 C26.5088851,46.9080597 26.4261011,46.7034084 26.2777384,46.5495895 C25.9762955,46.2382336 25.7959969,45.8926767 25.7959969,45.5587241 L25.7959969,43.0121735 C25.7959969,42.140872 26.5271686,41.4209818 27.4625639,41.4209818 L27.4625639,41.4210704 Z" id="path10721-3"></path>
                </g>
            </g>
        </g>
    </g>
</svg>